<?xml version="1.0" encoding="UTF-8" standalone="no"?>
<!-- Created with Inkscape (http://www.inkscape.org/) -->

<svg
   width="497.05029"
   height="448.35754"
   viewBox="0 0 497.05029 448.35754"
   version="1.1"
   id="svg1"
   inkscape:version="1.4.2 (1:1.4.2+202505120737+ebf0e940d0)"
   sodipodi:docname="drawing-1.svg"
   inkscape:export-filename="favicon.png"
   inkscape:export-xdpi="96"
   inkscape:export-ydpi="96"
   xmlns:inkscape="http://www.inkscape.org/namespaces/inkscape"
   xmlns:sodipodi="http://sodipodi.sourceforge.net/DTD/sodipodi-0.dtd"
   xmlns="http://www.w3.org/2000/svg"
   xmlns:svg="http://www.w3.org/2000/svg">
  <sodipodi:namedview
     id="namedview1"
     pagecolor="#888888"
     bordercolor="#000000"
     borderopacity="0.25"
     inkscape:showpageshadow="2"
     inkscape:pageopacity="0.0"
     inkscape:pagecheckerboard="0"
     inkscape:deskcolor="#d1d1d1"
     inkscape:document-units="px"
     inkscape:zoom="1.9593611"
     inkscape:cx="146.7315"
     inkscape:cy="79.362605"
     inkscape:window-width="3840"
     inkscape:window-height="2123"
     inkscape:window-x="0"
     inkscape:window-y="0"
     inkscape:window-maximized="1"
     inkscape:current-layer="layer1">
    <inkscape:page
       x="0"
       y="0"
       width="497.05029"
       height="448.35754"
       id="page2"
       margin="0"
       bleed="0" />
  </sodipodi:namedview>
  <defs
     id="defs1" />
  <g
     inkscape:label="Layer 1"
     inkscape:groupmode="layer"
     id="layer1"
     transform="translate(-7.1637182,-25.790899)">
    <g
       id="g1"
       transform="matrix(14.022589,0,0,16.019475,-5069.0135,-3882.961)"
       style="fill:#ffffff">
      <path
         d="m 373.41595,244.81093 -1.8859,1.89101 c -1.07893,1.08124 -1.07893,2.84119 0,3.92243 l 1.8859,1.89101 c 1.0789,1.08124 2.8287,1.08124 3.9077,0 l 0.3847,-0.3885 c 1.6888,-1.6991 3.9828,-2.64928 6.3753,-2.64928 2.3925,0 4.6817,0.95486 6.3752,2.64928 l 0.3847,0.3885 c 1.079,1.08124 2.8288,1.08124 3.9078,0 l 1.8858,-1.89101 c 1.079,-1.08124 1.079,-2.84119 0,-3.92243 l -1.8858,-1.89101 c -1.079,-1.08124 -2.8288,-1.08124 -3.9078,0 l -0.3847,0.3885 c -1.6888,1.6991 -3.9827,2.64928 -6.3752,2.64928 -2.3925,0 -4.6818,-0.95486 -6.3753,-2.64928 l -0.3847,-0.3885 c -1.079,-1.08124 -2.8288,-1.08124 -3.9077,0 z"
         fill="#ffffff"
         id="path1"
         style="fill:#ffffff" />
      <path
         d="m 364.69507,254.14428 -1.88585,1.891 c -1.07896,1.0812 -1.07896,2.8412 0,3.9224 l 1.88585,1.891 c 1.07896,1.0813 2.82877,1.0813 3.90773,0 l 0.38468,-0.3885 c 1.68881,-1.6991 3.98277,-2.6492 6.37527,-2.6492 2.3925,0 4.6818,0.9548 6.3753,2.6492 l 0.3847,0.3885 c 1.0789,1.0813 2.8287,1.0813 3.9077,0 l 1.8858,-1.891 c 1.079,-1.0812 1.079,-2.8412 0,-3.9224 l -1.8858,-1.891 c -1.079,-1.08126 -2.8288,-1.08126 -3.9077,0 l -0.3847,0.3885 c -1.6888,1.6991 -3.9828,2.6493 -6.3753,2.6493 -2.3925,0 -4.68177,-0.9549 -6.37527,-2.6493 l -0.38468,-0.3885 c -1.07896,-1.08126 -2.82877,-1.08126 -3.90773,0 z"
         fill="#ffffff"
         id="path2"
         style="fill:#ffffff" />
      <path
         d="m 373.41595,263.47288 -1.8859,1.891 c -1.07893,1.0813 -1.07893,2.8412 0,3.9225 l 1.8859,1.891 c 1.0789,1.0812 2.8287,1.0812 3.9077,0 l 0.3847,-0.3885 c 1.6888,-1.6991 3.9828,-2.6493 6.3753,-2.6493 2.3925,0 4.6817,0.9549 6.3752,2.6493 l 0.3847,0.3885 c 1.079,1.0812 2.8288,1.0812 3.9078,0 l 1.8858,-1.891 c 1.079,-1.0813 1.079,-2.8412 0,-3.9225 l -1.8858,-1.891 c -1.079,-1.0812 -2.8288,-1.0812 -3.9078,0 l -0.3847,0.3885 c -1.6888,1.6991 -3.9827,2.6493 -6.3752,2.6493 -2.3925,0 -4.6818,-0.9548 -6.3753,-2.6493 l -0.3847,-0.3885 c -1.079,-1.0812 -2.8288,-1.0812 -3.9077,0 z"
         fill="#ffffff"
         id="path3"
         style="fill:#ffffff" />
    </g>
  </g>
</svg>
